<svg version="1.1" id="Layer_1" xmlns="http://www.w3.org/2000/svg" x="0" y="0" viewBox="0 0 292 280.2" xml:space="preserve"><style type="text/css">.st0{fill:#fff}</style><title>logo</title><path class="st0" d="M237.4 41.9c-23.5 29.2-37 60.1-39.5 64.4S185 128.7 185 128.7s-8.6-28.2-41.2-28.2-62.5 22.3-96.1 86.2c0 0-29.4 7-47 7-.4 0-.7.3-.7.7 0 .2.1.3.1.4 2.9 3.9 14.6 16.2 44.4 15.7C79.8 210 109.1 199 145 199c24.9 0 38.7 1.9 44.8 3.1 2.4.5 4.8-.7 6-2.8l24.6-43.7c1-1.7.4-3.9-1.4-4.9-.4-.2-.8-.4-1.3-.4-11.2-1.5-38.1-4.3-58.9-.9-26.9 4.4-37 7.7-69.2 23.3-6.4 3.1-19.8 7.6-19.8 7.6s26.7-16 38.3-22.7c24.2-14.1 51.9-21.1 79.9-20 6.1-11.8 13.7-25.7 19.1-29.2s24.8-12 30.1-22.7 7.6-32.6 10.7-38.1 7-23.2 43.9-47.6c-13.2 5.5-30.9 12.6-54.4 41.9zM18.7 239.3c-5.3 0-7.2 2.8-7.2 2.8l-1.8-2.8H1.1v40.9l10.2-3.4v-11.4c2.2 1.1 4.7 1.6 7.2 1.5 4.6 0 8.3-3.3 8.3-12.3s-1.3-15.3-8.1-15.3zm-4.8 20.4c-1 .1-1.9-.2-2.7-.7v-10.7s.1-1.2 2.7-1.2 2.7 1.4 2.7 6.9-.7 5.7-2.7 5.7zM128 239.3c-5.3 0-7.2 2.8-7.2 2.8l-1.8-2.8h-8.6v40.9l10.2-3.4v-11.4c2.2 1.1 4.7 1.6 7.2 1.5 4.6 0 8.3-3.3 8.3-12.3s-1.2-15.3-8.1-15.3zm-4.7 20.4c-1 .1-1.9-.2-2.7-.7v-10.7s.1-1.2 2.7-1.2 2.7 1.4 2.7 6.9-.7 5.7-2.7 5.7zm46.1-20.4c-5.3 0-7.2 2.8-7.2 2.8l-1.8-2.8h-8.6v40.9l10.2-3.4v-11.4c2.2 1.1 4.7 1.6 7.2 1.5 4.6 0 8.3-3.3 8.3-12.3s-1.2-15.3-8.1-15.3zm-4.7 20.4c-1 .1-1.9-.2-2.7-.7v-10.7s.1-1.2 2.7-1.2 2.7 1.4 2.7 6.9-.7 5.7-2.7 5.7zM39.3 231.2c0-2.8-2.2-5-5-5s-5 2.2-5 5 2.2 5 5 5 5-2.2 5-5zm-10.4 35.5h10.7v-27.4H29l-.1 27.4zm120-35.5c0-2.8-2.2-5-5-5s-5 2.2-5 5 2.2 5 5 5c2.8.1 5-2.2 5-5 .1.1.1.1 0 0zm-10.3 35.5h10.8v-27.4h-10.7l-.1 27.4zm59.2-27.4h-9.5c-6.9 0-8 7.9-8 9.2-.1 1.7-.1 6.1 0 9.3.2 5.7 4.7 8.9 7.8 8.9h7.7c2.8.1 5.6-.3 8.2-1.3v-6.6c-3.3 1-8.7.9-11.4.9s-2.2-3.3-2.2-3.3h8.3c4.4 0 6-3.1 6-4.5v-6.2c.1-4.8-4.7-6.4-6.9-6.4zm-2.9 9.5c0 .7-.6 1.3-1.3 1.3h-3.2v-2.7c0-.7.6-1.3 1.3-1.3h2c.7 0 1.3.6 1.3 1.3v1.4zm-134.8-9.5h-9.5c-6.9 0-8 7.9-8 9.2-.1 1.7-.1 6.1 0 9.4.2 5.7 4.7 8.9 7.8 8.9h7.7c2.8.1 5.6-.3 8.2-1.3v-6.6c-3.3 1-8.7.9-11.4.9s-2.2-3.3-2.2-3.3H61c4.4 0 6-3.1 6-4.5v-6.2c0-4.9-4.7-6.5-6.9-6.5zm-3 9.5c0 .7-.6 1.3-1.3 1.3h-3.2v-2.7c0-.7.6-1.3 1.3-1.3h2c.7 0 1.3.6 1.3 1.3v1.4h-.1zm27.4-8s-1.3-2-6.5-2c-9.2.1-9 9.9-9 12.9 0 13.9 4.7 15 9.1 15 2.4.1 4.8-.9 6.4-2.8l1.6 2.4h8.4v-40.1h-9.9l-.1 14.6zm0 16.9c-.7.7-1.7 1.1-2.7 1.1-1.8 0-2.8-.7-2.8-6s.3-6.8 2.8-6.8 2.7.7 2.7.7v11zm132.8-15l-1.3-3.4-8.8.2v27.1h10v-15c0-1.5 1.1-2.7 2.6-2.8h5.6V239h-3.2c-2.6 0-4.9 2.8-4.9 3.7z"/></svg>